<svg aria-hidden="true" style="position: absolute; width: 0; height: 0; overflow: hidden;" version="1.1" xmlns="http://www.w3.org/2000/svg" xmlns:xlink="http://www.w3.org/1999/xlink">
<defs>
<symbol id="github_icon" viewBox="0 0 32 32">
<path d="M16 2c-7.731 0-14 6.425-14 14.356 0 6.344 4.013 11.719 9.575 13.619 0.7 0.131 0.956-0.313 0.956-0.694 0-0.344-0.012-1.244-0.019-2.444-3.894 0.869-4.719-1.925-4.719-1.925-0.638-1.656-1.556-2.1-1.556-2.1-1.269-0.894 0.094-0.875 0.094-0.875 1.406 0.1 2.144 1.481 2.144 1.481 1.25 2.194 3.275 1.563 4.075 1.194 0.125-0.925 0.488-1.563 0.887-1.919-3.106-0.363-6.375-1.594-6.375-7.094 0-1.569 0.544-2.85 1.438-3.85-0.144-0.363-0.625-1.825 0.137-3.8 0 0 1.175-0.388 3.85 1.469 1.119-0.319 2.313-0.475 3.506-0.481 1.188 0.006 2.387 0.162 3.506 0.481 2.675-1.856 3.844-1.469 3.844-1.469 0.762 1.975 0.281 3.438 0.137 3.8 0.894 1.006 1.438 2.287 1.438 3.85 0 5.513-3.275 6.725-6.394 7.081 0.5 0.444 0.95 1.319 0.95 2.656 0 1.919-0.019 3.469-0.019 3.938 0 0.381 0.25 0.831 0.962 0.688 5.575-1.894 9.581-7.269 9.581-13.606 0-7.931-6.269-14.356-14-14.356z"></path>
</symbol>
<symbol id="phone_icon" viewBox="0 0 32 32">
<path stroke-linejoin="miter" stroke-linecap="butt" stroke-miterlimit="10" stroke-width="1.28" d="M19.339 22.561c0 0 2.591-1.484 3.27-1.84 0.676-0.358 1.377-0.448 1.803-0.188 0.644 0.394 6.056 3.994 6.512 4.313s0.675 1.231 0.049 2.125c-0.624 0.893-3.503 4.426-4.723 4.388-1.222-0.040-6.301-0.151-15.88-9.732-9.577-9.578-9.69-14.659-9.729-15.881s3.494-4.1 4.387-4.725c0.895-0.624 1.808-0.389 2.125 0.050 0.361 0.5 3.919 5.894 4.311 6.513 0.268 0.422 0.17 1.127-0.188 1.804-0.356 0.678-1.839 3.27-1.839 3.27s1.046 1.784 4.582 5.32c3.537 3.537 5.32 4.584 5.32 4.584z"></path>
</symbol>
<symbol id="email_icon" viewBox="0 0 32 32">
<path d="M29.684 24.306c0.015-0.046 0.025-0.095 0.025-0.146v-16.941c0-0.052-0.010-0.101-0.026-0.147-0.002-0.006-0.003-0.013-0.006-0.019-0.020-0.055-0.050-0.104-0.088-0.147-0.003-0.003-0.003-0.006-0.005-0.009-0.002-0.002-0.003-0.002-0.005-0.004-0.040-0.043-0.088-0.077-0.141-0.103-0.004-0.002-0.007-0.004-0.011-0.006-0.050-0.023-0.105-0.035-0.163-0.039-0.006-0-0.011-0.002-0.017-0.002s-0.010-0.002-0.016-0.002h-26.532c-0.005 0-0.011 0.001-0.016 0.002s-0.010 0.001-0.015 0.002c-0.058 0.004-0.114 0.017-0.165 0.040-0.003 0.001-0.006 0.003-0.009 0.005-0.054 0.026-0.102 0.061-0.143 0.104-0.002 0.002-0.003 0.002-0.005 0.003s-0.003 0.006-0.005 0.009c-0.038 0.043-0.068 0.092-0.088 0.147-0.003 0.006-0.004 0.013-0.006 0.019-0.015 0.047-0.026 0.096-0.026 0.147v16.941c0 0.052 0.011 0.102 0.026 0.149 0.002 0.006 0.003 0.012 0.006 0.019 0.021 0.055 0.051 0.104 0.089 0.147 0.002 0.003 0.003 0.006 0.005 0.008s0.004 0.003 0.007 0.006c0.016 0.016 0.033 0.031 0.051 0.045 0.008 0.006 0.015 0.013 0.023 0.019 0.021 0.015 0.044 0.026 0.067 0.037 0.006 0.003 0.011 0.007 0.017 0.009 0.058 0.025 0.121 0.039 0.188 0.039h26.532c0.067 0 0.13-0.014 0.188-0.039 0.009-0.004 0.017-0.010 0.026-0.014 0.020-0.010 0.040-0.020 0.058-0.033 0.010-0.007 0.018-0.015 0.027-0.023 0.016-0.013 0.032-0.026 0.046-0.041 0.003-0.003 0.005-0.004 0.008-0.007s0.003-0.007 0.006-0.010c0.037-0.043 0.067-0.092 0.088-0.146 0.003-0.007 0.005-0.014 0.007-0.021zM3.178 8.304l8.051 7.354-8.051 7.412v-14.766zM19.678 15.297c-0.033 0.022-0.068 0.040-0.096 0.070-0.011 0.011-0.014 0.026-0.023 0.039l-3.594 3.283-12.033-10.991h24.066l-8.32 7.6zM11.938 16.305l3.705 3.384c0.092 0.084 0.207 0.125 0.323 0.125s0.231-0.042 0.322-0.125l3.659-3.342 8.049 7.335h-24.071l8.012-7.377zM20.656 15.699l8.097-7.395v14.774l-8.097-7.378z"></path>
</symbol>
<symbol id="smartphone_icon" viewBox="0 0 32 32">
<path d="M16.5 4h-5c-0.276 0-0.5-0.224-0.5-0.5s0.224-0.5 0.5-0.5h5c0.276 0 0.5 0.224 0.5 0.5s-0.224 0.5-0.5 0.5z"></path>
<path d="M14.5 29h-1c-0.276 0-0.5-0.224-0.5-0.5s0.224-0.5 0.5-0.5h1c0.276 0 0.5 0.224 0.5 0.5s-0.224 0.5-0.5 0.5z"></path>
<path d="M19.5 31h-11c-1.379 0-2.5-1.121-2.5-2.5v-25c0-1.379 1.121-2.5 2.5-2.5h11c1.379 0 2.5 1.121 2.5 2.5v2c0 0.276-0.224 0.5-0.5 0.5s-0.5-0.224-0.5-0.5v-2c0-0.827-0.673-1.5-1.5-1.5h-11c-0.827 0-1.5 0.673-1.5 1.5v25c0 0.827 0.673 1.5 1.5 1.5h11c0.827 0 1.5-0.673 1.5-1.5v-8c0-0.276 0.224-0.5 0.5-0.5s0.5 0.224 0.5 0.5v8c0 1.379-1.121 2.5-2.5 2.5z"></path>
<path d="M16.5 23c-0.056 0-0.112-0.010-0.167-0.029-0.2-0.071-0.333-0.259-0.333-0.471v-3.5h-1.5c-0.827 0-1.5-0.673-1.5-1.5v-9c0-0.827 0.673-1.5 1.5-1.5h14c0.827 0 1.5 0.673 1.5 1.5v9c0 0.827-0.673 1.5-1.5 1.5h-8.512l-3.1 3.815c-0.097 0.12-0.241 0.185-0.388 0.185zM14.5 8c-0.276 0-0.5 0.225-0.5 0.5v9c0 0.275 0.224 0.5 0.5 0.5h2c0.276 0 0.5 0.224 0.5 0.5v2.592l2.362-2.907c0.095-0.118 0.238-0.185 0.388-0.185h8.75c0.276 0 0.5-0.225 0.5-0.5v-9c0-0.275-0.224-0.5-0.5-0.5h-14z"></path>
<path d="M23.5 15v0c0.276 0 0.5-0.224 0.5-0.5s-0.224-0.5-0.5-0.5v0c-0.276 0-0.5 0.224-0.5 0.5s0.224 0.5 0.5 0.5z"></path>
<path d="M21.516 14.984v0c0.276 0 0.5-0.224 0.5-0.5s-0.224-0.5-0.5-0.5v0c-0.276 0-0.5 0.224-0.5 0.5s0.223 0.5 0.5 0.5z"></path>
<path d="M19.516 14.984v0c0.276 0 0.5-0.224 0.5-0.5s-0.224-0.5-0.5-0.5v0c-0.276 0-0.5 0.224-0.5 0.5s0.223 0.5 0.5 0.5z"></path>
</symbol>
<symbol id="telephone_icon" viewBox="0 0 32 32">
<path d="M9.984 31.001c-0.159 0-0.326-0.025-0.503-0.081-0.904-0.275-1.109-1.335-1.086-1.918l0.004-2.529c-6.861-2.181-6.706-9.549-6.631-13.122 0.078-3.707 0.78-6.334 2.209-8.27 0.164-0.223 0.477-0.269 0.699-0.105s0.27 0.477 0.105 0.699c-1.301 1.762-1.94 4.208-2.014 7.697-0.077 3.64-0.22 10.413 6.25 12.243 0.087 0.022 0.168 0.067 0.232 0.131 0.094 0.094 0.149 0.221 0.149 0.354l-0.005 2.922c-0.005 0.186 0.045 0.84 0.382 0.942 0.438 0.14 0.746-0.154 1.453-0.956 0.136-0.155 0.279-0.317 0.431-0.48 0.489-0.528 1.164-1.305 1.676-1.896 0.104-0.121 0.259-0.186 0.42-0.171 4.857 0.406 8.41-0.602 8.443-0.612 0.089-0.029 0.22-0.063 0.381-0.104 1.545-0.394 5.651-1.439 6.393-7.522 0.803-6.535-0.139-11.337-2.652-13.522-0.489-0.451-3.21-2.652-9.794-2.681-0.074-0.004-4.462-0.246-8.090 1.111-0.261 0.098-0.547-0.034-0.644-0.292-0.096-0.259 0.035-0.547 0.293-0.644 3.831-1.433 8.285-1.184 8.473-1.174 6.925 0.029 9.903 2.45 10.429 2.935 2.761 2.401 3.822 7.515 2.978 14.389-0.825 6.762-5.577 7.972-7.138 8.37-0.136 0.035-0.245 0.062-0.322 0.087-0.723 0.229-4.247 0.998-8.579 0.677-0.492 0.567-1.088 1.25-1.533 1.73-0.147 0.158-0.284 0.313-0.415 0.462-0.578 0.655-1.172 1.33-1.994 1.33z"></path>
<path d="M20.258 22.6c-0.207 0-0.412-0.033-0.61-0.096l-0.171-0.065c-1.376-0.443-4.095-1.89-5.786-3.237-0.902-0.712-1.785-1.595-2.483-2.483-0.644-0.805-1.246-1.717-1.79-2.707-1.221-2.207-1.505-3.222-1.517-3.264-0.461-1.43 0.854-2.783 2.122-3.5l0.144-0.065c0.679-0.302 1.397-0.145 1.852 0.401v0c0 0 0.716 0.856 1.022 1.278 0.302 0.41 0.698 1.058 0.89 1.392 0.482 0.862 0.184 1.751-0.339 2.152l-0.671 0.537c-0.11 0.089-0.117 0.325-0.114 0.358 0 0 0 0 0 0 0.008 0 0.998 3.465 4.4 4.334 0.052-0.014 0.211-0.044 0.279-0.129l0.544-0.679c0.433-0.567 1.401-0.747 2.141-0.334 0.738 0.417 1.884 1.173 2.693 1.936 0.532 0.432 0.678 1.126 0.372 1.814v0.019l-0.065 0.126c-0.296 0.519-1.378 2.212-2.913 2.212zM20.106 21.588c0.792 0.125 1.675-0.809 2.159-1.633l0.027-0.056c0.157-0.301 0.127-0.543-0.088-0.718-0.639-0.602-1.619-1.305-2.524-1.815-0.337-0.189-0.749-0.070-0.863 0.079l-0.551 0.688c-0.354 0.442-0.903 0.49-1.123 0.49l-0.104-0.004c-4.084-1.038-5.169-4.978-5.213-5.145-0.021-0.164-0.068-0.878 0.47-1.31l0.68-0.544c0.132-0.101 0.322-0.45 0.086-0.872-0.215-0.375-0.58-0.959-0.828-1.295-0.295-0.407-0.981-1.225-0.983-1.227-0.192-0.231-0.438-0.256-0.738-0.099l-0.102 0.053c-0.758 0.455-1.84 1.386-1.551 2.284 0.008 0.029 0.284 0.987 1.434 3.066 0.517 0.941 1.087 1.805 1.697 2.569 0.653 0.832 1.477 1.654 2.321 2.321 1.793 1.428 4.565 2.818 5.612 3.111l0.182 0.057z"></path>
<path d="M23 13.5c-0.276 0-0.5-0.224-0.5-0.5 0-3.033-2.467-5.5-5.5-5.5-0.276 0-0.5-0.224-0.5-0.5s0.224-0.5 0.5-0.5c3.584 0 6.5 2.916 6.5 6.5 0 0.276-0.224 0.5-0.5 0.5z"></path>
<path d="M21 13.5c-0.276 0-0.5-0.224-0.5-0.5 0-1.93-1.57-3.5-3.5-3.5-0.276 0-0.5-0.224-0.5-0.5s0.224-0.5 0.5-0.5c2.481 0 4.5 2.019 4.5 4.5 0 0.276-0.224 0.5-0.5 0.5z"></path>
<path d="M19 13.5c-0.276 0-0.5-0.224-0.5-0.5 0-0.827-0.673-1.5-1.5-1.5-0.276 0-0.5-0.224-0.5-0.5s0.224-0.5 0.5-0.5c1.378 0 2.5 1.122 2.5 2.5 0 0.276-0.224 0.5-0.5 0.5z"></path>
<path d="M7 3.5c0 0.276-0.224 0.5-0.5 0.5s-0.5-0.224-0.5-0.5c0-0.276 0.224-0.5 0.5-0.5s0.5 0.224 0.5 0.5z"></path>
</symbol>
<symbol id="call_icon" viewBox="0 0 32 32">
<path d="M32 15.573c0 8.604-7.040 15.573-15.716 15.573-2.738 0-5.333-0.711-7.609-1.956l-8.676 2.809 2.844-8.356c-1.422-2.347-2.24-5.12-2.24-8.036-0.036-8.64 7.004-15.609 15.68-15.609s15.716 6.969 15.716 15.573zM16.284 2.489c-7.289 0-13.191 5.867-13.191 13.084 0 2.88 0.924 5.511 2.524 7.68l-1.636 4.871 5.084-1.6c2.098 1.387 4.587 2.169 7.253 2.169 7.253 0 13.191-5.867 13.191-13.12s-5.938-13.084-13.227-13.084zM24.213 19.164c-0.107-0.142-0.356-0.249-0.747-0.462-0.391-0.178-2.276-1.102-2.631-1.244s-0.604-0.178-0.853 0.178c-0.249 0.391-0.996 1.244-1.209 1.493s-0.462 0.284-0.818 0.107c-0.391-0.178-1.636-0.604-3.093-1.884-1.138-0.996-1.92-2.276-2.133-2.631-0.213-0.391-0.036-0.604 0.178-0.782 0.178-0.178 0.391-0.462 0.569-0.676s0.249-0.391 0.391-0.64c0.142-0.249 0.071-0.462-0.036-0.676-0.107-0.178-0.853-2.062-1.173-2.844-0.32-0.747-0.64-0.64-0.853-0.64s-0.498-0.036-0.747-0.036-0.676 0.107-1.031 0.462c-0.356 0.391-1.351 1.316-1.351 3.2s1.387 3.698 1.564 3.947c0.178 0.249 2.667 4.231 6.578 5.76s3.911 1.031 4.622 0.96c0.711-0.071 2.276-0.924 2.596-1.813 0.284-0.853 0.284-1.6 0.178-1.778z"></path>
</symbol>
</defs>
</svg>
